<svg width="98" height="100" viewBox="0 0 98 100" fill="none" xmlns="http://www.w3.org/2000/svg">
<g clip-path="url(#clip0_165_5817)">
<rect width="97.0095" height="99.2143" transform="translate(0.595703 0.0714111)" fill="#001F3F"/>
<path d="M20.4549 39.9613C20.4549 28.8012 29.2098 21.5856 42.6789 21.5856C54.4162 21.5856 62.209 28.1277 63.5559 39.0954H58.7456C57.7835 30.6291 52.011 25.8187 42.6789 25.8187C32.096 25.8187 25.0728 31.3988 25.0728 39.9613C25.0728 46.5034 29.0173 50.8327 36.8102 52.8531L48.9324 55.9318C59.2266 58.5294 64.7104 64.6867 64.7104 73.4416C64.7104 84.8903 55.8593 92.2021 42.1978 92.2021C29.4022 92.2021 20.7435 85.5638 19.6852 74.8847H24.5918C24.9766 82.6775 31.9998 87.8728 42.1978 87.8728C53.0693 87.8728 60.0925 82.2927 60.0925 73.5378C60.0925 66.8032 56.1479 62.2815 48.0665 60.2611L36.2329 57.2787C25.9387 54.6811 20.4549 48.8124 20.4549 39.9613Z" fill="white"/>
<path d="M58.9978 52.8255H39.1646V77.2286H34.7775V12.3365H58.9978C71.3365 12.3365 78.9225 20.3795 78.9225 32.4439C78.9225 43.8686 71.2451 52.8255 58.9978 52.8255ZM58.815 16.358H39.1646V48.804H58.2667C68.4118 48.804 74.444 41.9492 74.444 32.2611C74.444 22.4816 68.3204 16.358 58.815 16.358Z" fill="white"/>
</g>
<defs>
<clipPath id="clip0_165_5817">
<rect width="97.0095" height="99.2143" fill="white" transform="translate(0.595703 0.0714111)"/>
</clipPath>
</defs>
</svg>
